# xmcd CD database file
#
# Track frame offsets:
#	150
#	17665
#	34072
#	47265
#	61897
#	78347
#	99407
#	122492
#
# Disc length: 1900 seconds
#
# Revision: 0
# Processed by: cddbd v1.5PL3 Copyright (c) Steve Scherf et al.
# Submitted via: cdripper 1.0.7
#
DISCID=52076a08
DTITLE=Bobi Jackson - Alligator Woman 
DYEAR=1992
DGENRE=Blues
TTITLE0=Alligator Woman
TTITLE1=I Jus' Wanna Make Love To You
TTITLE2=Do The Daddy Don
TTITLE3=Hard Rockin' Woman
TTITLE4=Born Under A Bad Sigh
TTITLE5=Would You Be Here (For Janis Joplin)
TTITLE6=Merida
TTITLE7=Love Your Neighbor
EXTD=YEAR: 1992
EXTT0=
EXTT1=
EXTT2=
EXTT3=
EXTT4=
EXTT5=
EXTT6=
EXTT7=
PLAYORDER=
